<svg width="152" height="76" viewBox="0 0 152 76" fill="none" xmlns="http://www.w3.org/2000/svg">
<path opacity="0.973" fill-rule="evenodd" clip-rule="evenodd" d="M71.2991 0C73.1778 0 75.0566 0 76.9354 0C76.9354 14.6864 76.9354 29.3729 76.9354 44.0592C75.0566 44.0592 73.1778 44.0592 71.2991 44.0592C71.2991 29.3729 71.2991 14.6864 71.2991 0Z" fill="#0F2961"/>
<path opacity="0.98" fill-rule="evenodd" clip-rule="evenodd" d="M85.4837 4.60314C87.4235 4.4998 88.6607 5.37667 89.1942 7.23354C89.2872 9.92736 87.9881 11.1956 85.2958 11.0382C83.4198 10.467 82.5904 9.19874 82.8064 7.23354C83.1944 5.82797 84.0868 4.9512 85.4837 4.60314Z" fill="#0F2961"/>
<path opacity="0.979" fill-rule="evenodd" clip-rule="evenodd" d="M147.671 4.60327C150.157 4.63145 151.393 5.88409 151.381 8.36099C150.878 10.3976 149.578 11.29 147.483 11.0384C145.554 10.4539 144.725 9.15443 144.993 7.13973C145.36 5.72401 146.252 4.87852 147.671 4.60327Z" fill="#0F2961"/>
<path opacity="0.988" fill-rule="evenodd" clip-rule="evenodd" d="M13.715 14.6553C19.0781 14.5115 23.3836 16.5469 26.6314 20.7616C29.5814 25.1635 30.145 29.8606 28.3223 34.853C25.6531 40.6913 21.0971 43.7601 14.6543 44.0594C8.15927 43.7128 3.60328 40.5813 0.986351 34.6652C-0.921812 29.051 0.0175681 23.9781 3.80449 19.4464C6.51742 16.626 9.82094 15.0289 13.715 14.6553ZM13.4331 20.2919C17.4913 19.9802 20.5755 21.5459 22.686 24.989C24.621 29.2089 23.9477 32.9509 20.6664 36.2152C17.6161 38.6336 14.297 39.072 10.7089 37.5304C6.52963 35.1105 4.94828 31.525 5.96507 26.774C7.22515 23.18 9.71451 21.0193 13.4331 20.2919Z" fill="#0F2961"/>
<path opacity="0.988" fill-rule="evenodd" clip-rule="evenodd" d="M49.4114 14.6551C55.3753 14.5285 59.9313 16.971 63.0793 21.9826C65.6108 26.8204 65.6422 31.6741 63.1733 36.5438C62.0002 38.5782 60.4502 40.2692 58.5233 41.6167C62.22 45.4607 63.1751 49.9073 61.3885 54.9566C59.4713 59.1487 56.2304 61.5755 51.6659 62.2372C49.3803 62.2841 47.0945 62.2998 44.8084 62.2841C44.8084 60.4366 44.8084 58.5891 44.8084 56.7415C46.8439 56.7572 48.8793 56.7415 50.9144 56.6945C54.4467 56.074 56.3881 53.976 56.7385 50.4003C56.5066 47.2256 54.8784 45.1589 51.8538 44.2001C46.895 44.3415 42.7148 42.6348 39.313 39.0802C35.8875 34.9167 34.8854 30.2195 36.307 24.9888C38.5493 18.8353 42.9174 15.3907 49.4114 14.6551ZM49.1295 20.2916C53.7285 20.0139 56.9693 21.9554 58.8521 26.1161C60.2185 30.5657 59.0442 34.1825 55.3295 36.9665C51.876 38.9602 48.4629 38.8976 45.0902 36.7786C41.9879 34.3754 40.7823 31.2283 41.4736 27.3374C42.5777 23.3988 45.1296 21.0502 49.1295 20.2916Z" fill="#0F2961"/>
<path opacity="0.988" fill-rule="evenodd" clip-rule="evenodd" d="M83.229 14.655C85.0768 14.655 86.9236 14.655 88.7713 14.655C88.7713 24.4564 88.7713 34.2578 88.7713 44.0592C86.9236 44.0592 85.0768 44.0592 83.229 44.0592C83.229 34.2578 83.229 24.4564 83.229 14.655Z" fill="#0F2961"/>
<path opacity="0.99" fill-rule="evenodd" clip-rule="evenodd" d="M98.7288 14.6553C100.923 14.6188 103.115 14.6658 105.304 14.7962C111.041 15.7763 115.003 18.9546 117.188 24.3314C117.57 25.3972 117.821 26.4932 117.939 27.6194C118.075 33.0978 118.122 38.5777 118.08 44.0594C116.201 44.0594 114.323 44.0594 112.444 44.0594C112.475 43.3677 112.444 42.6787 112.35 41.9926C109.581 44.1102 106.449 45.0653 102.956 44.8579C99.067 44.1261 96.5776 41.8558 95.488 38.047C94.6435 33.5622 96.1305 30.1019 99.95 27.6664C100.986 27.133 102.082 26.7885 103.238 26.633C106.15 26.586 109.062 26.5703 111.974 26.586C110.734 23.0517 108.26 20.9693 104.553 20.3388C102.612 20.2918 100.671 20.2761 98.7288 20.2918C98.7288 18.413 98.7288 16.5341 98.7288 14.6553ZM103.895 32.1286C106.745 32.1286 109.595 32.1286 112.444 32.1286C111.706 35.3245 109.828 37.5634 106.807 38.8456C105.578 39.3392 104.326 39.4332 103.05 39.1274C101.624 38.4523 100.872 37.325 100.795 35.7454C100.944 33.7682 101.977 32.5627 103.895 32.1286Z" fill="#0F2961"/>
<path opacity="0.989" fill-rule="evenodd" clip-rule="evenodd" d="M138.089 14.655C138.402 14.655 138.715 14.655 139.028 14.655C139.028 16.5339 139.028 18.4127 139.028 20.2916C134.955 20.4362 132.122 22.3777 130.527 26.1161C130.221 26.9029 130.033 27.7171 129.963 28.5586C129.916 33.7254 129.9 38.8922 129.916 44.0592C128.069 44.0592 126.222 44.0592 124.374 44.0592C124.358 38.6417 124.374 33.2244 124.421 27.807C125.246 21.8813 128.424 17.7948 133.956 15.5475C135.309 15.0771 136.687 14.7796 138.089 14.655Z" fill="#0F2961"/>
<path opacity="0.988" fill-rule="evenodd" clip-rule="evenodd" d="M145.416 14.655C147.264 14.655 149.111 14.655 150.958 14.655C150.958 24.4564 150.958 34.2578 150.958 44.0592C149.111 44.0592 147.264 44.0592 145.416 44.0592C145.416 34.2578 145.416 24.4564 145.416 14.655Z" fill="#0F2961"/>
<path opacity="0.988" fill-rule="evenodd" clip-rule="evenodd" d="M0 56.7417C1.87876 56.7417 3.75752 56.7417 5.63628 56.7417C5.84407 62.3475 8.41168 66.4653 13.3392 69.0952C15.2417 69.9936 17.2457 70.4476 19.3512 70.4574C19.3512 72.3049 19.3512 74.1524 19.3512 76C11.3397 75.7464 5.49988 72.0827 1.83179 65.0087C0.628258 62.386 0.0176604 59.6304 0 56.7417Z" fill="#00B0AC"/>
</svg>
