<svg width="213" height="139" viewBox="0 0 213 139" fill="none" xmlns="http://www.w3.org/2000/svg">
<g id="Group 3">
<g id="Group">
<path id="Vector" opacity="0.973" fill-rule="evenodd" clip-rule="evenodd" d="M100.221 0C102.862 0 105.502 0 108.143 0C108.143 20.6438 108.143 41.2877 108.143 61.9314C105.502 61.9314 102.862 61.9314 100.221 61.9314C100.221 41.2877 100.221 20.6438 100.221 0Z" fill="white"/>
</g>
<g id="Group_2">
<path id="Vector_2" opacity="0.98" fill-rule="evenodd" clip-rule="evenodd" d="M120.159 6.47047C122.886 6.32521 124.625 7.55777 125.375 10.1679C125.506 13.9544 123.679 15.7371 119.895 15.5159C117.258 14.7129 116.092 12.9302 116.396 10.1679C116.941 8.19214 118.196 6.95971 120.159 6.47047Z" fill="white"/>
</g>
<g id="Group_3">
<path id="Vector_3" opacity="0.979" fill-rule="evenodd" clip-rule="evenodd" d="M207.572 6.47046C211.067 6.51007 212.805 8.27083 212.787 11.7525C212.08 14.6152 210.252 15.8696 207.308 15.5159C204.597 14.6944 203.431 12.8678 203.809 10.0358C204.324 8.04582 205.578 6.85737 207.572 6.47046Z" fill="white"/>
</g>
<g id="Group_4">
<path id="Vector_4" opacity="0.988" fill-rule="evenodd" clip-rule="evenodd" d="M19.2784 20.5999C26.817 20.3977 32.8691 23.2587 37.4344 29.1831C41.5809 35.3706 42.3732 41.9731 39.8111 48.9906C36.0591 57.1971 29.655 61.5108 20.5989 61.9315C11.4691 61.4442 5.06505 57.0425 1.38659 48.7265C-1.2956 40.8351 0.0248332 33.7044 5.34789 27.3344C9.16129 23.3699 13.8049 21.125 19.2784 20.5999ZM18.8823 28.5229C24.5866 28.0847 28.9219 30.2856 31.8886 35.1254C34.6084 41.0569 33.662 46.3169 29.0496 50.9053C24.7621 54.3047 20.0966 54.921 15.0531 52.754C9.17846 49.3525 6.95564 44.3126 8.38488 37.6343C10.1561 32.5825 13.6552 29.5453 18.8823 28.5229Z" fill="white"/>
</g>
<g id="Group_5">
<path id="Vector_5" opacity="0.988" fill-rule="evenodd" clip-rule="evenodd" d="M69.4548 20.5998C77.838 20.422 84.2421 23.8553 88.6671 30.8997C92.2254 37.6999 92.2695 44.5225 88.7991 51.3675C87.1502 54.2272 84.9715 56.6041 82.263 58.4982C87.4592 63.9015 88.8016 70.1519 86.2903 77.2493C83.5954 83.1419 79.04 86.5531 72.6238 87.4832C69.4111 87.5492 66.1981 87.5712 62.9847 87.5492C62.9847 84.9522 62.9847 82.3553 62.9847 79.7582C65.8459 79.7803 68.7069 79.7582 71.5675 79.6922C76.5327 78.82 79.2617 75.8709 79.7542 70.8449C79.4282 66.3824 77.1395 63.4773 72.8879 62.1296C65.9178 62.3283 60.0419 59.9293 55.2602 54.9328C50.4451 49.0804 49.0366 42.4779 51.0348 35.1253C54.1867 26.4758 60.3267 21.6339 69.4548 20.5998ZM69.0587 28.5228C75.5231 28.1325 80.0786 30.8614 82.7251 36.7099C84.6457 42.9645 82.9952 48.0484 77.7735 51.9617C72.9192 54.7641 68.1216 54.6761 63.3808 51.6976C59.0201 48.3195 57.3255 43.8958 58.2972 38.4266C59.8491 32.8904 63.4362 29.5891 69.0587 28.5228Z" fill="white"/>
</g>
<g id="Group_6">
<path id="Vector_6" opacity="0.988" fill-rule="evenodd" clip-rule="evenodd" d="M116.99 20.5999C119.588 20.5999 122.183 20.5999 124.781 20.5999C124.781 34.377 124.781 48.1543 124.781 61.9315C122.183 61.9315 119.588 61.9315 116.99 61.9315C116.99 48.1543 116.99 34.377 116.99 20.5999Z" fill="white"/>
</g>
<g id="Group_7">
<path id="Vector_7" opacity="0.99" fill-rule="evenodd" clip-rule="evenodd" d="M138.777 20.5998C141.862 20.5486 144.942 20.6146 148.02 20.7979C156.084 22.1756 161.653 26.6432 164.724 34.2009C165.261 35.6991 165.614 37.2397 165.78 38.8227C165.972 46.5233 166.038 54.2262 165.978 61.9314C163.337 61.9314 160.697 61.9314 158.056 61.9314C158.099 60.9592 158.056 59.9907 157.924 59.0263C154.031 62.0029 149.629 63.3454 144.719 63.0539C139.253 62.0252 135.754 58.834 134.222 53.4803C133.035 47.1762 135.125 42.3123 140.494 38.8887C141.95 38.1391 143.491 37.6548 145.115 37.4362C149.209 37.3701 153.302 37.3481 157.395 37.3701C155.652 32.4022 152.174 29.475 146.964 28.5888C144.236 28.5228 141.507 28.5007 138.777 28.5228C138.777 25.8818 138.777 23.2408 138.777 20.5998ZM146.04 45.1611C150.045 45.1611 154.051 45.1611 158.056 45.1611C157.019 49.6533 154.378 52.8005 150.133 54.6027C148.405 55.2966 146.644 55.4286 144.851 54.9988C142.847 54.0499 141.791 52.4653 141.682 50.245C141.891 47.4658 143.343 45.7712 146.04 45.1611Z" fill="white"/>
</g>
<g id="Group_8">
<path id="Vector_8" opacity="0.989" fill-rule="evenodd" clip-rule="evenodd" d="M194.103 20.5999C194.543 20.5999 194.984 20.5999 195.424 20.5999C195.424 23.2409 195.424 25.8819 195.424 28.5229C189.698 28.7261 185.716 31.4552 183.474 36.71C183.043 37.816 182.779 38.9605 182.682 40.1433C182.616 47.4059 182.593 54.6686 182.616 61.9315C180.018 61.9315 177.422 61.9315 174.825 61.9315C174.803 54.3164 174.825 46.7017 174.891 39.0869C176.05 30.7574 180.517 25.0132 188.293 21.8543C190.196 21.1932 192.133 20.775 194.103 20.5999Z" fill="white"/>
</g>
<g id="Group_9">
<path id="Vector_9" opacity="0.988" fill-rule="evenodd" clip-rule="evenodd" d="M204.403 20.5999C207 20.5999 209.596 20.5999 212.193 20.5999C212.193 34.377 212.193 48.1543 212.193 61.9315C209.596 61.9315 207 61.9315 204.403 61.9315C204.403 48.1543 204.403 34.377 204.403 20.5999Z" fill="white"/>
</g>
<g id="Group_10">
<path id="Vector_10" opacity="0.988" fill-rule="evenodd" clip-rule="evenodd" d="M0 79.7583C2.64086 79.7583 5.28172 79.7583 7.92259 79.7583C8.21467 87.638 11.8238 93.4261 18.7501 97.1229C21.4244 98.3857 24.2413 99.0239 27.2009 99.0376C27.2009 101.635 27.2009 104.232 27.2009 106.829C15.9396 106.472 7.73086 101.322 2.57484 91.3787C0.883104 87.6921 0.0248241 83.8187 0 79.7583Z" fill="#00B0AC"/>
</g>
<g id="Group_11">
<path id="Vector_11" opacity="0.942" fill-rule="evenodd" clip-rule="evenodd" d="M43.7062 126.108C48.0351 126.071 50.3679 128.205 50.7044 132.512C50.328 137.158 47.8192 139.27 43.178 138.85C40.5917 138.244 39.0292 136.639 38.4905 134.031C37.9719 131.317 38.7421 129.05 40.8012 127.23C41.7169 126.683 42.6852 126.31 43.7062 126.108ZM43.4421 127.692C47.2717 127.539 49.0983 129.388 48.9219 133.238C48.4341 136.191 46.6956 137.578 43.7062 137.398C41.8403 136.941 40.6738 135.774 40.207 133.899C39.7227 131.627 40.3609 129.758 42.1216 128.286C42.5697 128.073 43.0098 127.874 43.4421 127.692Z" fill="white"/>
</g>
<g id="Group_12">
<path id="Vector_12" opacity="0.938" fill-rule="evenodd" clip-rule="evenodd" d="M71.9634 126.108C75.754 125.962 78.0648 127.723 78.8957 131.39C79.3241 134.694 78.0696 137.092 75.1325 138.586C72.7841 139.313 70.6274 138.96 68.6624 137.53C66.842 135.553 66.2478 133.242 66.8798 130.597C67.6549 128.038 69.3494 126.542 71.9634 126.108ZM71.6994 127.692C75.6625 127.584 77.4892 129.521 77.1791 133.502C76.8896 135.597 75.7232 136.895 73.68 137.398C70.2784 137.562 68.5178 135.934 68.3983 132.512C68.3757 130.109 69.4761 128.502 71.6994 127.692Z" fill="white"/>
</g>
<g id="Group_13">
<path id="Vector_13" opacity="0.938" fill-rule="evenodd" clip-rule="evenodd" d="M111.048 126.108C113.677 125.892 115.724 126.862 117.188 129.013C118.79 132.403 118.239 135.374 115.538 137.926C113.508 139.038 111.396 139.214 109.2 138.454C107.265 137.486 106.143 135.923 105.833 133.767C105.331 129.633 107.07 127.08 111.048 126.108ZM110.784 127.692C114.747 127.584 116.574 129.521 116.264 133.503C115.975 135.597 114.808 136.895 112.765 137.398C109.917 137.679 108.178 136.425 107.549 133.635C107.121 130.789 108.2 128.808 110.784 127.692Z" fill="white"/>
</g>
<g id="Group_14">
<path id="Vector_14" opacity="0.94" fill-rule="evenodd" clip-rule="evenodd" d="M135.212 126.108C140.216 126.206 142.527 128.758 142.144 133.767C141.204 137.705 138.718 139.399 134.684 138.851C132.039 138.231 130.477 136.581 129.996 133.899C129.446 129.709 131.183 127.111 135.212 126.108ZM134.948 127.693C138.911 127.584 140.738 129.521 140.428 133.503C140.139 135.597 138.971 136.895 136.929 137.398C134.08 137.679 132.341 136.425 131.713 133.635C131.285 130.79 132.364 128.81 134.948 127.693Z" fill="white"/>
</g>
<g id="Group_15">
<path id="Vector_15" opacity="0.934" fill-rule="evenodd" clip-rule="evenodd" d="M150.265 126.108C152.565 125.904 154.414 126.697 155.811 128.485C155.487 128.845 155.091 129.109 154.622 129.277C153.322 127.912 151.737 127.406 149.869 127.758C147.64 128.539 146.452 130.123 146.304 132.512C146.404 135.077 147.681 136.705 150.133 137.398C151.65 137.64 152.993 137.266 154.16 136.276C154.226 135.441 154.249 134.604 154.226 133.767C152.817 133.767 151.41 133.767 150.001 133.767C150.001 133.282 150.001 132.799 150.001 132.314C151.982 132.314 153.962 132.314 155.943 132.314C155.965 133.855 155.943 135.396 155.877 136.936C153.954 138.82 151.687 139.414 149.077 138.719C146.162 137.693 144.666 135.625 144.587 132.512C144.825 128.878 146.717 126.744 150.265 126.108Z" fill="white"/>
</g>
<g id="Group_16">
<path id="Vector_16" opacity="0.947" fill-rule="evenodd" clip-rule="evenodd" d="M53.6094 126.372C55.4585 126.349 57.3071 126.372 59.1552 126.438C62.4347 127.163 64.1072 129.209 64.1728 132.578C64.0154 136.147 62.1668 138.194 58.627 138.718C56.9551 138.784 55.2825 138.807 53.6094 138.784C53.6094 134.647 53.6094 130.509 53.6094 126.372ZM55.1939 127.824C56.3391 127.802 57.4835 127.824 58.627 127.89C61.1567 128.395 62.4332 129.936 62.4563 132.512C62.4679 134.921 61.3235 136.46 59.0231 137.134C57.7475 137.2 56.471 137.222 55.1939 137.2C55.1939 134.074 55.1939 130.95 55.1939 127.824Z" fill="white"/>
</g>
<g id="Group_17">
<path id="Vector_17" opacity="0.93" fill-rule="evenodd" clip-rule="evenodd" d="M81.8667 126.372C82.4892 126.328 83.1053 126.373 83.7153 126.504C85.9821 129.63 88.2487 132.754 90.5155 135.879C90.5815 132.71 90.6036 129.541 90.5815 126.372C91.1097 126.372 91.6379 126.372 92.1661 126.372C92.1661 130.509 92.1661 134.647 92.1661 138.785C91.636 138.807 91.1079 138.785 90.5815 138.719C88.2708 135.527 85.96 132.337 83.6493 129.145C83.5833 132.358 83.5612 135.57 83.5833 138.785C83.0111 138.785 82.4388 138.785 81.8667 138.785C81.8667 134.647 81.8667 130.509 81.8667 126.372Z" fill="white"/>
</g>
<g id="Group_18">
<path id="Vector_18" opacity="0.946" fill-rule="evenodd" clip-rule="evenodd" d="M94.6748 126.372C97.8438 126.372 101.013 126.372 104.182 126.372C104.182 126.856 104.182 127.34 104.182 127.824C102.861 127.824 101.541 127.824 100.221 127.824C100.221 131.478 100.221 135.131 100.221 138.785C99.6924 138.785 99.1643 138.785 98.6361 138.785C98.6361 135.131 98.6361 131.478 98.6361 127.824C97.3157 127.824 95.9952 127.824 94.6748 127.824C94.6748 127.34 94.6748 126.856 94.6748 126.372Z" fill="white"/>
</g>
<g id="Group_19">
<path id="Vector_19" opacity="0.899" fill-rule="evenodd" clip-rule="evenodd" d="M120.951 126.372C121.523 126.372 122.096 126.372 122.668 126.372C122.668 129.981 122.668 133.591 122.668 137.2C124.56 137.2 126.454 137.2 128.346 137.2C128.346 137.728 128.346 138.256 128.346 138.785C125.881 138.785 123.417 138.785 120.951 138.785C120.951 134.647 120.951 130.509 120.951 126.372Z" fill="white"/>
</g>
<g id="Group_20">
<path id="Vector_20" opacity="0.956" fill-rule="evenodd" clip-rule="evenodd" d="M158.98 126.372C159.508 126.372 160.036 126.372 160.564 126.372C160.564 130.509 160.564 134.647 160.564 138.785C160.036 138.785 159.508 138.785 158.98 138.785C158.98 134.647 158.98 130.509 158.98 126.372Z" fill="white"/>
</g>
<g id="Group_21">
<path id="Vector_21" opacity="0.937" fill-rule="evenodd" clip-rule="evenodd" d="M167.563 126.372C168.301 126.331 169.027 126.376 169.742 126.504C171.425 130.574 173.032 134.667 174.561 138.785C173.987 138.807 173.415 138.785 172.845 138.719C172.427 137.839 172.075 136.937 171.788 136.012C169.718 135.968 167.649 136.012 165.582 136.144C165.216 136.999 164.864 137.858 164.526 138.719C163.905 138.828 163.289 138.806 162.677 138.653C164.345 134.57 165.973 130.476 167.563 126.372ZM168.619 128.089C169.561 130.193 170.396 132.351 171.128 134.559C169.454 134.603 167.781 134.559 166.11 134.427C166.949 132.31 167.785 130.197 168.619 128.089Z" fill="white"/>
</g>
</g>
</svg>
