<svg width="248" height="125" viewBox="0 0 248 125" fill="none" xmlns="http://www.w3.org/2000/svg">
<path opacity="0.973" fill-rule="evenodd" clip-rule="evenodd" d="M116.806 0C119.884 0 122.961 0 126.039 0C126.039 24.0599 126.039 48.12 126.039 72.1799C122.961 72.1799 119.884 72.1799 116.806 72.1799C116.806 48.12 116.806 24.0599 116.806 0Z" fill="white"/>
<path opacity="0.98" fill-rule="evenodd" clip-rule="evenodd" d="M140.043 7.54097C143.221 7.37168 145.248 8.8082 146.122 11.8502C146.275 16.2634 144.146 18.341 139.736 18.0832C136.662 17.1474 135.303 15.0697 135.657 11.8502C136.293 9.54755 137.755 8.11118 140.043 7.54097Z" fill="white"/>
<path opacity="0.979" fill-rule="evenodd" clip-rule="evenodd" d="M241.921 7.54126C245.995 7.58743 248.02 9.63956 248 13.6973C247.175 17.0338 245.045 18.4958 241.613 18.0835C238.454 17.1261 237.095 14.9972 237.535 11.6966C238.135 9.37731 239.597 7.99219 241.921 7.54126Z" fill="white"/>
<path opacity="0.988" fill-rule="evenodd" clip-rule="evenodd" d="M22.4684 24.009C31.2545 23.7734 38.308 27.1078 43.6288 34.0126C48.4615 41.224 49.3849 48.9191 46.3989 57.0979C42.026 66.6624 34.5621 71.6899 24.0073 72.1802C13.3668 71.6123 5.90294 66.4822 1.61577 56.7901C-1.51027 47.5927 0.0286628 39.282 6.23258 31.858C10.677 27.2374 16.089 24.621 22.4684 24.009ZM22.0067 33.2431C28.6549 32.7324 33.7077 35.2975 37.1652 40.9382C40.3351 47.8513 39.2322 53.9817 33.8565 59.3294C28.8594 63.2913 23.4219 64.0096 17.5438 61.4841C10.697 57.5197 8.10639 51.6457 9.77214 43.8623C11.8365 37.9745 15.9147 34.4347 22.0067 33.2431Z" fill="white"/>
<path opacity="0.988" fill-rule="evenodd" clip-rule="evenodd" d="M80.948 24.0086C90.7184 23.8013 98.1823 27.8028 103.34 36.013C107.487 43.9385 107.538 51.8901 103.493 59.8678C101.572 63.2006 99.0324 65.9709 95.8757 68.1784C101.932 74.476 103.496 81.7606 100.569 90.0325C97.4286 96.9002 92.1193 100.876 84.6415 101.96C80.8971 102.037 77.1524 102.063 73.4072 102.037C73.4072 99.0101 73.4072 95.9834 73.4072 92.9566C76.7419 92.9823 80.0764 92.9566 83.4103 92.8797C89.1972 91.8632 92.3777 88.4261 92.9517 82.5683C92.5718 77.3673 89.9043 73.9815 84.9492 72.4107C76.8257 72.6424 69.9774 69.8464 64.4044 64.0231C58.7925 57.2022 57.151 49.5071 59.4798 40.9378C63.1533 30.857 70.3093 25.2138 80.948 24.0086ZM80.4863 33.2427C88.0205 32.7878 93.3298 35.9683 96.4143 42.7847C98.6527 50.0742 96.729 55.9994 90.6433 60.5603C84.9857 63.8264 79.3941 63.7239 73.8689 60.2525C68.7866 56.3154 66.8115 51.1597 67.944 44.7854C69.7527 38.333 73.9334 34.4855 80.4863 33.2427Z" fill="white"/>
<path opacity="0.988" fill-rule="evenodd" clip-rule="evenodd" d="M136.35 24.0085C139.377 24.0085 142.402 24.0085 145.429 24.0085C145.429 40.0656 145.429 56.1228 145.429 72.1798C142.402 72.1798 139.377 72.1798 136.35 72.1798C136.35 56.1228 136.35 40.0656 136.35 24.0085Z" fill="white"/>
<path opacity="0.99" fill-rule="evenodd" clip-rule="evenodd" d="M161.742 24.0088C165.337 23.9491 168.928 24.0261 172.515 24.2397C181.913 25.8453 188.403 31.0523 191.982 39.8607C192.609 41.6067 193.02 43.4023 193.214 45.2473C193.437 54.2222 193.514 63.1998 193.444 72.1801C190.367 72.1801 187.289 72.1801 184.211 72.1801C184.262 71.0469 184.211 69.9182 184.057 68.7942C179.52 72.2633 174.389 73.8281 168.668 73.4883C162.296 72.2894 158.218 68.57 156.433 62.3304C155.049 54.9831 157.486 49.3143 163.743 45.3242C165.44 44.4505 167.236 43.8862 169.129 43.6313C173.9 43.5544 178.671 43.5287 183.441 43.5544C181.41 37.7643 177.356 34.3527 171.284 33.3199C168.104 33.2429 164.923 33.2172 161.742 33.2429C161.742 30.1649 161.742 27.0869 161.742 24.0088ZM170.206 52.6346C174.874 52.6346 179.543 52.6346 184.211 52.6346C183.003 57.8701 179.925 61.5381 174.977 63.6385C172.963 64.4473 170.911 64.6012 168.821 64.1002C166.485 62.9943 165.254 61.1475 165.128 58.5598C165.371 55.3206 167.064 53.3456 170.206 52.6346Z" fill="white"/>
<path opacity="0.989" fill-rule="evenodd" clip-rule="evenodd" d="M226.224 24.0085C226.736 24.0085 227.25 24.0085 227.763 24.0085C227.763 27.0866 227.763 30.1646 227.763 33.2427C221.09 33.4795 216.448 36.6602 213.835 42.7846C213.334 44.0736 213.026 45.4075 212.912 46.786C212.835 55.2505 212.809 63.7151 212.835 72.1798C209.808 72.1798 206.782 72.1798 203.755 72.1798C203.729 63.3046 203.755 54.4297 203.832 45.5548C205.183 35.847 210.39 29.1523 219.452 25.4706C221.67 24.7 223.928 24.2126 226.224 24.0085Z" fill="white"/>
<path opacity="0.988" fill-rule="evenodd" clip-rule="evenodd" d="M238.228 24.0085C241.255 24.0085 244.28 24.0085 247.307 24.0085C247.307 40.0656 247.307 56.1228 247.307 72.1798C244.28 72.1798 241.255 72.1798 238.228 72.1798C238.228 56.1228 238.228 40.0656 238.228 24.0085Z" fill="white"/>
<path opacity="0.988" fill-rule="evenodd" clip-rule="evenodd" d="M0 92.957C3.07788 92.957 6.15575 92.957 9.23363 92.957C9.57404 102.141 13.7804 108.887 21.8529 113.195C24.9697 114.667 28.2527 115.411 31.7021 115.427C31.7021 118.453 31.7021 121.48 31.7021 124.507C18.5773 124.091 9.01017 118.089 3.00093 106.5C1.02924 102.204 0.028932 97.6894 0 92.957Z" fill="#00B0AC"/>
</svg>
