<svg width="270" height="255" viewBox="0 0 270 255" fill="none" xmlns="http://www.w3.org/2000/svg">
<path opacity="0.988" fill-rule="evenodd" clip-rule="evenodd" d="M56.9687 0.0295721C79.2456 -0.567845 97.1297 7.88653 110.62 25.3935C122.874 43.6777 125.215 63.1884 117.644 83.9255C106.556 108.176 87.632 120.923 60.8706 122.166C33.8919 120.727 14.9675 107.719 4.09747 83.1451C-3.82853 59.8255 0.0734082 38.754 15.8033 19.9305C27.0721 8.21509 40.794 1.58145 56.9687 0.0295721ZM55.7981 23.4424C72.6545 22.1477 85.4657 28.6514 94.2322 42.9531C102.269 60.4811 99.4729 76.0245 85.843 89.5836C73.173 99.6289 59.3863 101.45 44.4825 95.0466C27.1228 84.9951 20.5543 70.1018 24.7777 50.3672C30.0118 35.4387 40.3519 26.4638 55.7981 23.4424Z" fill="#0F2961"/>
<path opacity="0.988" fill-rule="evenodd" clip-rule="evenodd" d="M205.242 0.0295492C230.014 -0.496069 248.939 9.64949 262.015 30.4662C272.53 50.5611 272.66 70.7223 262.405 90.9494C257.532 99.3998 251.094 106.424 243.091 112.021C258.445 127.988 262.412 146.458 254.991 167.431C247.028 184.844 233.566 194.925 214.606 197.673C205.113 197.868 195.618 197.933 186.122 197.868C186.122 190.194 186.122 182.52 186.122 174.845C194.577 174.911 203.032 174.845 211.485 174.65C226.157 172.073 234.221 163.358 235.677 148.506C234.713 135.319 227.95 126.734 215.387 122.752C194.79 123.339 177.426 116.25 163.296 101.485C149.067 84.1909 144.905 64.6802 150.81 42.9531C160.124 17.3933 178.268 3.08531 205.242 0.0295492ZM204.071 23.4424C223.174 22.2889 236.636 30.3531 244.456 47.6356C250.132 66.1181 245.254 81.1413 229.824 92.7053C215.479 100.986 201.302 100.727 187.293 91.9249C174.407 81.9425 169.399 68.8703 172.27 52.7084C176.856 36.3487 187.456 26.5934 204.071 23.4424Z" fill="#0F2961"/>
<path opacity="0.988" fill-rule="evenodd" clip-rule="evenodd" d="M0 174.845C7.80387 174.845 15.6077 174.845 23.4116 174.845C24.2747 198.13 34.9399 215.234 55.4075 226.158C63.3101 229.89 71.6341 231.776 80.3799 231.817C80.3799 239.491 80.3799 247.165 80.3799 254.839C47.1022 253.786 22.845 238.568 7.60877 209.184C2.60961 198.29 0.0733564 186.844 0 174.845Z" fill="#00B0AC"/>
</svg>
